<svg width="200" height="171" viewBox="0 0 200 171" version="1.1" xmlns="http://www.w3.org/2000/svg" xmlns:xlink="http://www.w3.org/1999/xlink">
<title>Group</title>
<desc>Created using Figma</desc>
<g id="Canvas" transform="translate(1755 319)">
<g id="Group">
<g id="logo">
<g id="Vector">
<use xlink:href="#path0_stroke" transform="translate(-1742 -318)"/>
</g>
</g>
<g id="F O R G O T P A S S W O R D">
<use xlink:href="#path1_fill" transform="translate(-1756 -164)"/>
</g>
</g>
</g>
<defs>
<path id="path0_stroke" d="M 0 22.5L -0.797867 21.8972L -1 22.1647L -1 22.5L 0 22.5ZM 0 128L -1 128L -1 130.414L 0.707107 128.707L 0 128ZM 85 124.5L 84.3429 125.254L 85.0555 125.875L 85.7158 125.198L 85 124.5ZM 169 122L 168.312 122.726L 170 124.325L 170 122L 169 122ZM 169 17L 170 17L 170 16.6512L 169.783 16.3781L 169 17ZM 85 19L 84.2351 19.6441L 85.0384 20.598L 85.795 19.6067L 85 19ZM 5.5 134L 4.5 134L 4.5 136.296L 6.1811 134.732L 5.5 134ZM 85 130.5L 84.4642 131.344L 85.1499 131.779L 85.7165 131.198L 85 130.5ZM 163.5 128L 162.691 128.588L 164.5 131.075L 164.5 128L 163.5 128ZM 163.5 117.468L 164.093 116.662L 163.5 117.468ZM 36.5 19L 37.3255 18.4356L 35.5 15.7658L 35.5 19L 36.5 19ZM 36.5 95L 35.5 95L 35.5 96L 36.5 96L 36.5 95ZM 52 95L 52 96L 53 96L 53 95L 52 95ZM 52 22.5L 52.8227 21.9316L 51 19.2934L 51 22.5L 52 22.5ZM 90 77.5L 89.1773 78.0684L 90.0337 79.308L 90.8434 78.0374L 90 77.5ZM 126 21L 127 21L 127 17.5696L 125.157 20.4626L 126 21ZM 126 95L 126 96L 127 96L 127 95L 126 95ZM 114.5 95L 113.5 95L 113.5 96L 114.5 96L 114.5 95ZM 114.5 21L 115.5 21L 115.5 17.7213L 113.67 20.4419L 114.5 21ZM 76.5 77.5L 75.6745 78.0644L 76.5068 79.2817L 77.3298 78.0581L 76.5 77.5ZM -1 22.5L -1 128L 1 128L 1 22.5L -1 22.5ZM 43 108.5C 60.6502 108.5 77.9223 119.656 84.3429 125.254L 85.6571 123.746C 79.0777 118.01 61.3498 106.5 43 106.5L 43 108.5ZM 85.7158 125.198C 89.013 121.817 95.0279 116.78 102.493 112.558C 109.967 108.321 118.681 104.983 127.5 105L 127.5 103C 118.319 103.017 109.116 106.512 101.507 110.817C 93.8887 115.136 87.6537 120.35 84.2842 123.802L 85.7158 125.198ZM 170 122L 170 17L 168 17L 168 122L 170 122ZM 169.783 16.3781C 165.11 10.4936 150.231 -1 127.5 -1L 127.5 1C 149.569 1 163.89 12.173 168.217 17.6219L 169.783 16.3781ZM 127.5 -1C 104.728 -1 89.1881 11.8639 84.205 18.3933L 85.795 19.6067C 90.4786 13.4695 105.472 1 127.5 1L 127.5 -1ZM 85.7649 18.3559C 80.3077 11.8754 64.1842 -1 43 -1L 43 1C 63.4158 1 79.0257 13.4579 84.2351 19.6441L 85.7649 18.3559ZM 43 -1C 21.7525 -1 4.95889 14.2779 -0.797867 21.8972L 0.797867 23.1028C 6.37444 15.7221 22.6475 1 43 1L 43 -1ZM 0.707107 128.707C 2.08234 127.331 3.90673 125.69 6.12404 123.92L 4.87596 122.357C 2.61333 124.165 0.705946 125.88 -0.707107 127.293L 0.707107 128.707ZM 6.12404 123.92C 14.8129 116.981 29.0207 108.5 43 108.5L 43 106.5C 28.324 106.5 13.6654 115.337 4.87596 122.357L 6.12404 123.92ZM 4.5 123.138L 4.5 134L 6.5 134L 6.5 123.138L 4.5 123.138ZM 6.1811 134.732C 13.3692 128.046 27.9374 115 46.5 115L 46.5 113C 27.0626 113 11.9641 126.621 4.8189 133.268L 6.1811 134.732ZM 46.5 115C 65.1207 115 75.5928 125.714 84.4642 131.344L 85.5358 129.656C 77.0738 124.286 65.8793 113 46.5 113L 46.5 115ZM 85.7165 131.198C 91.7938 124.956 108.685 112.5 127.5 112.5L 127.5 110.5C 107.915 110.5 90.5395 123.377 84.2835 129.802L 85.7165 131.198ZM 127.5 112.5C 146.32 112.5 158.841 123.294 162.691 128.588L 164.309 127.412C 160.159 121.706 147.08 110.5 127.5 110.5L 127.5 112.5ZM 127.5 105C 141.311 105 154.71 112.244 162.907 118.274L 164.093 116.662C 155.757 110.531 141.936 103 127.5 103L 127.5 105ZM 162.907 118.274C 165.151 119.923 166.97 121.454 168.312 122.726L 169.688 121.274C 168.302 119.962 166.388 118.351 164.093 116.662L 162.907 118.274ZM 164.5 128L 164.5 117.468L 162.5 117.468L 162.5 128L 164.5 128ZM 35.5 19L 35.5 95L 37.5 95L 37.5 19L 35.5 19ZM 36.5 96L 52 96L 52 94L 36.5 94L 36.5 96ZM 53 95L 53 22.5L 51 22.5L 51 95L 53 95ZM 51.1773 23.0684L 89.1773 78.0684L 90.8227 76.9316L 52.8227 21.9316L 51.1773 23.0684ZM 90.8434 78.0374L 126.843 21.5374L 125.157 20.4626L 89.1566 76.9626L 90.8434 78.0374ZM 125 21L 125 95L 127 95L 127 21L 125 21ZM 126 94L 114.5 94L 114.5 96L 126 96L 126 94ZM 115.5 95L 115.5 21L 113.5 21L 113.5 95L 115.5 95ZM 113.67 20.4419L 75.6702 76.9419L 77.3298 78.0581L 115.33 21.5581L 113.67 20.4419ZM 77.3255 76.9356L 37.3255 18.4356L 35.6745 19.5644L 75.6745 78.0644L 77.3255 76.9356Z"/>
<path id="path1_fill" d="M 7.59375 9.97656L 2.82031 9.97656L 2.82031 15L 1.32031 15L 1.32031 3.625L 8.36719 3.625L 8.36719 4.85938L 2.82031 4.85938L 2.82031 8.75L 7.59375 8.75L 7.59375 9.97656ZM 22.8828 9.67969C 22.8828 10.7943 22.6953 11.7682 22.3203 12.6016C 21.9453 13.4297 21.4141 14.0625 20.7266 14.5C 20.0391 14.9375 19.237 15.1562 18.3203 15.1562C 17.4245 15.1562 16.6302 14.9375 15.9375 14.5C 15.2448 14.0573 14.7057 13.4297 14.3203 12.6172C 13.9401 11.7995 13.7448 10.8542 13.7344 9.78125L 13.7344 8.96094C 13.7344 7.86719 13.9245 6.90104 14.3047 6.0625C 14.6849 5.22396 15.2214 4.58333 15.9141 4.14062C 16.612 3.69271 17.4089 3.46875 18.3047 3.46875C 19.2161 3.46875 20.0182 3.6901 20.7109 4.13281C 21.4089 4.57031 21.9453 5.20833 22.3203 6.04688C 22.6953 6.88021 22.8828 7.85156 22.8828 8.96094L 22.8828 9.67969ZM 21.3906 8.94531C 21.3906 7.59635 21.1198 6.5625 20.5781 5.84375C 20.0365 5.11979 19.2786 4.75781 18.3047 4.75781C 17.3568 4.75781 16.6094 5.11979 16.0625 5.84375C 15.5208 6.5625 15.2422 7.5625 15.2266 8.84375L 15.2266 9.67969C 15.2266 10.987 15.5 12.0156 16.0469 12.7656C 16.599 13.5104 17.3568 13.8828 18.3203 13.8828C 19.2891 13.8828 20.0391 13.5312 20.5703 12.8281C 21.1016 12.1198 21.375 11.1068 21.3906 9.78906L 21.3906 8.94531ZM 33.2734 10.3984L 30.6016 10.3984L 30.6016 15L 29.0938 15L 29.0938 3.625L 32.8594 3.625C 34.1406 3.625 35.125 3.91667 35.8125 4.5C 36.5052 5.08333 36.8516 5.93229 36.8516 7.04688C 36.8516 7.75521 36.6589 8.3724 36.2734 8.89844C 35.8932 9.42448 35.362 9.81771 34.6797 10.0781L 37.3516 14.9062L 37.3516 15L 35.7422 15L 33.2734 10.3984ZM 30.6016 9.17188L 32.9062 9.17188C 33.651 9.17188 34.2422 8.97917 34.6797 8.59375C 35.1224 8.20833 35.3438 7.69271 35.3438 7.04688C 35.3438 6.34375 35.1328 5.80469 34.7109 5.42969C 34.2943 5.05469 33.6901 4.86458 32.8984 4.85938L 30.6016 4.85938L 30.6016 9.17188ZM 51.3281 13.5078C 50.9427 14.0599 50.4036 14.474 49.7109 14.75C 49.0234 15.0208 48.2214 15.1562 47.3047 15.1562C 46.3776 15.1562 45.5547 14.9401 44.8359 14.5078C 44.1172 14.0703 43.5599 13.4505 43.1641 12.6484C 42.7734 11.8464 42.5729 10.9167 42.5625 9.85938L 42.5625 8.86719C 42.5625 7.15365 42.9609 5.82552 43.7578 4.88281C 44.5599 3.9401 45.6849 3.46875 47.1328 3.46875C 48.3203 3.46875 49.276 3.77344 50 4.38281C 50.724 4.98698 51.1667 5.84635 51.3281 6.96094L 49.8281 6.96094C 49.5469 5.45573 48.651 4.70312 47.1406 4.70312C 46.1354 4.70312 45.3724 5.05729 44.8516 5.76562C 44.3359 6.46875 44.0755 7.48958 44.0703 8.82812L 44.0703 9.75781C 44.0703 11.0339 44.362 12.0495 44.9453 12.8047C 45.5286 13.5547 46.3177 13.9297 47.3125 13.9297C 47.875 13.9297 48.3672 13.8672 48.7891 13.7422C 49.2109 13.6172 49.5599 13.4062 49.8359 13.1094L 49.8359 10.5547L 47.2031 10.5547L 47.2031 9.33594L 51.3281 9.33594L 51.3281 13.5078ZM 66.5547 9.67969C 66.5547 10.7943 66.3672 11.7682 65.9922 12.6016C 65.6172 13.4297 65.0859 14.0625 64.3984 14.5C 63.7109 14.9375 62.9089 15.1562 61.9922 15.1562C 61.0964 15.1562 60.3021 14.9375 59.6094 14.5C 58.9167 14.0573 58.3776 13.4297 57.9922 12.6172C 57.612 11.7995 57.4167 10.8542 57.4062 9.78125L 57.4062 8.96094C 57.4062 7.86719 57.5964 6.90104 57.9766 6.0625C 58.3568 5.22396 58.8932 4.58333 59.5859 4.14062C 60.2839 3.69271 61.0807 3.46875 61.9766 3.46875C 62.888 3.46875 63.6901 3.6901 64.3828 4.13281C 65.0807 4.57031 65.6172 5.20833 65.9922 6.04688C 66.3672 6.88021 66.5547 7.85156 66.5547 8.96094L 66.5547 9.67969ZM 65.0625 8.94531C 65.0625 7.59635 64.7917 6.5625 64.25 5.84375C 63.7083 5.11979 62.9505 4.75781 61.9766 4.75781C 61.0286 4.75781 60.2812 5.11979 59.7344 5.84375C 59.1927 6.5625 58.9141 7.5625 58.8984 8.84375L 58.8984 9.67969C 58.8984 10.987 59.1719 12.0156 59.7188 12.7656C 60.2708 13.5104 61.0286 13.8828 61.9922 13.8828C 62.9609 13.8828 63.7109 13.5312 64.2422 12.8281C 64.7734 12.1198 65.0469 11.1068 65.0625 9.78906L 65.0625 8.94531ZM 80.3203 4.85938L 76.6641 4.85938L 76.6641 15L 75.1719 15L 75.1719 4.85938L 71.5234 4.85938L 71.5234 3.625L 80.3203 3.625L 80.3203 4.85938ZM 91.1328 10.5469L 91.1328 15L 89.6328 15L 89.6328 3.625L 93.8281 3.625C 95.0729 3.625 96.0469 3.94271 96.75 4.57812C 97.4583 5.21354 97.8125 6.05469 97.8125 7.10156C 97.8125 8.20573 97.4661 9.05729 96.7734 9.65625C 96.0859 10.25 95.099 10.5469 93.8125 10.5469L 91.1328 10.5469ZM 91.1328 9.32031L 93.8281 9.32031C 94.6302 9.32031 95.2448 9.13281 95.6719 8.75781C 96.099 8.3776 96.3125 7.83073 96.3125 7.11719C 96.3125 6.4401 96.099 5.89844 95.6719 5.49219C 95.2448 5.08594 94.6589 4.875 93.9141 4.85938L 91.1328 4.85938L 91.1328 9.32031ZM 109.977 12.0312L 105.211 12.0312L 104.141 15L 102.594 15L 106.938 3.625L 108.25 3.625L 112.602 15L 111.062 15L 109.977 12.0312ZM 105.664 10.7969L 109.531 10.7969L 107.594 5.47656L 105.664 10.7969ZM 121.453 9.92969C 120.167 9.5599 119.229 9.10677 118.641 8.57031C 118.057 8.02865 117.766 7.36198 117.766 6.57031C 117.766 5.67448 118.122 4.9349 118.836 4.35156C 119.555 3.76302 120.487 3.46875 121.633 3.46875C 122.414 3.46875 123.109 3.61979 123.719 3.92188C 124.333 4.22396 124.807 4.64062 125.141 5.17188C 125.479 5.70312 125.648 6.28385 125.648 6.91406L 124.141 6.91406C 124.141 6.22656 123.922 5.6875 123.484 5.29688C 123.047 4.90104 122.43 4.70312 121.633 4.70312C 120.893 4.70312 120.315 4.86719 119.898 5.19531C 119.487 5.51823 119.281 5.96875 119.281 6.54688C 119.281 7.01042 119.477 7.40365 119.867 7.72656C 120.263 8.04427 120.932 8.33594 121.875 8.60156C 122.823 8.86719 123.562 9.16146 124.094 9.48438C 124.63 9.80208 125.026 10.1745 125.281 10.6016C 125.542 11.0286 125.672 11.5312 125.672 12.1094C 125.672 13.0312 125.312 13.7708 124.594 14.3281C 123.875 14.8802 122.914 15.1562 121.711 15.1562C 120.93 15.1562 120.201 15.0078 119.523 14.7109C 118.846 14.4089 118.323 13.9974 117.953 13.4766C 117.589 12.9557 117.406 12.3646 117.406 11.7031L 118.914 11.7031C 118.914 12.3906 119.167 12.9349 119.672 13.3359C 120.182 13.7318 120.862 13.9297 121.711 13.9297C 122.503 13.9297 123.109 13.7682 123.531 13.4453C 123.953 13.1224 124.164 12.6823 124.164 12.125C 124.164 11.5677 123.969 11.138 123.578 10.8359C 123.188 10.5286 122.479 10.2266 121.453 9.92969ZM 134.922 9.92969C 133.635 9.5599 132.698 9.10677 132.109 8.57031C 131.526 8.02865 131.234 7.36198 131.234 6.57031C 131.234 5.67448 131.591 4.9349 132.305 4.35156C 133.023 3.76302 133.956 3.46875 135.102 3.46875C 135.883 3.46875 136.578 3.61979 137.188 3.92188C 137.802 4.22396 138.276 4.64062 138.609 5.17188C 138.948 5.70312 139.117 6.28385 139.117 6.91406L 137.609 6.91406C 137.609 6.22656 137.391 5.6875 136.953 5.29688C 136.516 4.90104 135.898 4.70312 135.102 4.70312C 134.362 4.70312 133.784 4.86719 133.367 5.19531C 132.956 5.51823 132.75 5.96875 132.75 6.54688C 132.75 7.01042 132.945 7.40365 133.336 7.72656C 133.732 8.04427 134.401 8.33594 135.344 8.60156C 136.292 8.86719 137.031 9.16146 137.562 9.48438C 138.099 9.80208 138.495 10.1745 138.75 10.6016C 139.01 11.0286 139.141 11.5312 139.141 12.1094C 139.141 13.0312 138.781 13.7708 138.062 14.3281C 137.344 14.8802 136.383 15.1562 135.18 15.1562C 134.398 15.1562 133.669 15.0078 132.992 14.7109C 132.315 14.4089 131.792 13.9974 131.422 13.4766C 131.057 12.9557 130.875 12.3646 130.875 11.7031L 132.383 11.7031C 132.383 12.3906 132.635 12.9349 133.141 13.3359C 133.651 13.7318 134.331 13.9297 135.18 13.9297C 135.971 13.9297 136.578 13.7682 137 13.4453C 137.422 13.1224 137.633 12.6823 137.633 12.125C 137.633 11.5677 137.438 11.138 137.047 10.8359C 136.656 10.5286 135.948 10.2266 134.922 9.92969ZM 147.492 11.4141L 147.711 12.9141L 148.031 11.5625L 150.281 3.625L 151.547 3.625L 153.742 11.5625L 154.055 12.9375L 154.297 11.4062L 156.062 3.625L 157.57 3.625L 154.812 15L 153.445 15L 151.102 6.71094L 150.922 5.84375L 150.742 6.71094L 148.312 15L 146.945 15L 144.195 3.625L 145.695 3.625L 147.492 11.4141ZM 171.961 9.67969C 171.961 10.7943 171.773 11.7682 171.398 12.6016C 171.023 13.4297 170.492 14.0625 169.805 14.5C 169.117 14.9375 168.315 15.1562 167.398 15.1562C 166.503 15.1562 165.708 14.9375 165.016 14.5C 164.323 14.0573 163.784 13.4297 163.398 12.6172C 163.018 11.7995 162.823 10.8542 162.812 9.78125L 162.812 8.96094C 162.812 7.86719 163.003 6.90104 163.383 6.0625C 163.763 5.22396 164.299 4.58333 164.992 4.14062C 165.69 3.69271 166.487 3.46875 167.383 3.46875C 168.294 3.46875 169.096 3.6901 169.789 4.13281C 170.487 4.57031 171.023 5.20833 171.398 6.04688C 171.773 6.88021 171.961 7.85156 171.961 8.96094L 171.961 9.67969ZM 170.469 8.94531C 170.469 7.59635 170.198 6.5625 169.656 5.84375C 169.115 5.11979 168.357 4.75781 167.383 4.75781C 166.435 4.75781 165.688 5.11979 165.141 5.84375C 164.599 6.5625 164.32 7.5625 164.305 8.84375L 164.305 9.67969C 164.305 10.987 164.578 12.0156 165.125 12.7656C 165.677 13.5104 166.435 13.8828 167.398 13.8828C 168.367 13.8828 169.117 13.5312 169.648 12.8281C 170.18 12.1198 170.453 11.1068 170.469 9.78906L 170.469 8.94531ZM 182.352 10.3984L 179.68 10.3984L 179.68 15L 178.172 15L 178.172 3.625L 181.938 3.625C 183.219 3.625 184.203 3.91667 184.891 4.5C 185.583 5.08333 185.93 5.93229 185.93 7.04688C 185.93 7.75521 185.737 8.3724 185.352 8.89844C 184.971 9.42448 184.44 9.81771 183.758 10.0781L 186.43 14.9062L 186.43 15L 184.82 15L 182.352 10.3984ZM 179.68 9.17188L 181.984 9.17188C 182.729 9.17188 183.32 8.97917 183.758 8.59375C 184.201 8.20833 184.422 7.69271 184.422 7.04688C 184.422 6.34375 184.211 5.80469 183.789 5.42969C 183.372 5.05469 182.768 4.86458 181.977 4.85938L 179.68 4.85938L 179.68 9.17188ZM 192.008 15L 192.008 3.625L 195.219 3.625C 196.208 3.625 197.083 3.84375 197.844 4.28125C 198.604 4.71875 199.19 5.34115 199.602 6.14844C 200.018 6.95573 200.229 7.88281 200.234 8.92969L 200.234 9.65625C 200.234 10.7292 200.026 11.6693 199.609 12.4766C 199.198 13.2839 198.607 13.9036 197.836 14.3359C 197.07 14.7682 196.177 14.9896 195.156 15L 192.008 15ZM 193.508 4.85938L 193.508 13.7734L 195.086 13.7734C 196.242 13.7734 197.141 13.4141 197.781 12.6953C 198.427 11.9766 198.75 10.9531 198.75 9.625L 198.75 8.96094C 198.75 7.66927 198.445 6.66667 197.836 5.95312C 197.232 5.23438 196.372 4.86979 195.258 4.85938L 193.508 4.85938Z"/>
</defs>
</svg>
