<svg width="194" height="185" viewBox="-2 -2 198 189" version="1.1" xmlns="http://www.w3.org/2000/svg" xmlns:xlink="http://www.w3.org/1999/xlink">
<path id="path0_stroke" fill="white" d="
  M 0 23.8433L -0.777055 23.2139L -1 23.4891L -1 23.8433L 0 23.8433Z
  M 0 135.642L -1 135.642L -1 137.942L 0.682093 136.373L 0 135.642Z
  M 96.568 131.933L 95.9371 132.709L 96.6215 133.265L 97.2591 132.656L 96.568 131.933Z
  M 192 129.284L 191.338 130.033L 193 131.502L 193 129.284L 192 129.284Z
  M 192 18.0149L 193 18.0149L 193 17.6469L 192.761 17.3667L 192 18.0149Z
  M 96.568 20.1343L 95.8258 20.8044L 96.6054 21.6679L 97.342 20.7676L 96.568 20.1343Z
  M 6.24852 142L 5.24852 142L 5.24852 144.192L 6.90389 142.755L 6.24852 142Z
  M 96.568 138.291L 96.0587 139.152L 96.7118 139.538L 97.2598 139.013L 96.568 138.291Z
  M -1 23.8433L -1 135.642L 1 135.642L 1 23.8433L -1 23.8433Z
  M 48.8521 114.918C 68.9753 114.918 88.6377 126.773 95.9371 132.709L 97.199 131.157C 89.7292 125.083 69.6282 112.918 48.8521 112.918L 48.8521 114.918Z
  M 97.2591 132.656C 104.769 125.475 124.79 111.209 144.852 111.209L 144.852 109.209C 124.015 109.209 103.515 123.908 95.877 131.21L 97.2591 132.656Z
  M 193 129.284L 193 18.0149L 191 18.0149L 191 129.284L 193 129.284Z
  M 192.761 17.3667C 187.466 11.147 170.605 -1 144.852 -1L 144.852 1C 169.997 1 186.309 12.8729 191.239 18.6632L 192.761 17.3667Z
  M 144.852 -1C 119.061 -1 101.446 12.593 95.7941 19.5011L 97.342 20.7676C 102.672 14.2528 119.747 1 144.852 1L 144.852 -1Z
  M 97.3103 19.4642C 91.1172 12.6045 72.8394 -1 48.8521 -1L 48.8521 1C 72.1262 1 89.9005 14.2413 95.8258 20.8044L 97.3103 19.4642Z
  M 48.8521 -1C 24.8039 -1 5.76337 15.1395 -0.777055 23.2139L 0.777055 24.4727C 7.11237 16.6516 25.6387 1 48.8521 1L 48.8521 -1Z
  M 0.682093 136.373C 2.24655 134.913 4.32406 133.17 6.84592 131.292L 5.65112 129.688C 3.08335 131.601 0.921204 133.416 -0.682093 134.911L 0.682093 136.373Z
  M 6.84592 131.292C 16.7187 123.937 32.9003 114.918 48.8521 114.918L 48.8521 112.918C 32.2488 112.918 15.6353 122.25 5.65112 129.688L 6.84592 131.292Z
  M 5.24852 130.49L 5.24852 142L 7.24852 142L 7.24852 130.49L 5.24852 130.49Z
  M 6.90389 142.755C 15.0581 135.68 31.6539 121.806 52.8284 121.806L 52.8284 119.806C 30.8313 119.806 13.7229 134.191 5.59315 141.245L 6.90389 142.755Z
  M 52.8284 121.806C 74.0571 121.806 86.0186 133.208 96.0587 139.152L 97.0774 137.431C 87.4251 131.717 74.7713 119.806 52.8284 119.806L 52.8284 121.806Z
  M 97.2598 139.013C 104.168 132.395 123.398 119.157 144.852 119.157L 144.852 117.157C 122.68 117.157 102.98 130.764 95.8763 137.569L 97.2598 139.013Z
  M 144.852 119.157C 166.314 119.157 180.58 130.636 184.963 136.257L 186.54 135.027C 181.834 128.991 167.016 117.157 144.852 117.157L 144.852 119.157Z
  M 144.852 111.209C 160.605 111.209 175.867 118.912 185.186 125.306L 186.317 123.656C 176.853 117.163 161.189 109.209 144.852 109.209L 144.852 111.209Z
  M 185.186 125.306C 187.738 127.056 189.81 128.682 191.338 130.033L 192.662 128.534C 191.09 127.146 188.921 125.444 186.317 123.656L 185.186 125.306Z
  M 186.751 135.642L 186.751 124.481L 184.751 124.481L 184.751 135.642
"/>
<path id="path1_fill" transform="translate(-10 167)" fill="white" d="
  M 22.7031 4.20312L 26.8867 14.6445L 31.0703 4.20312L 33.2588 4.20312L 33.2588 17L 31.5713 17L 31.5713 12.0166L 31.7295 6.6377L 27.5283 17L 26.2363 17L 22.0439 6.66406L 22.2109 12.0166L 22.2109 17L 20.5234 17L 20.5234 4.20312L 22.7031 4.20312Z
  M 50.5469 11.0146C 50.5469 12.2686 50.3359 13.3643 49.9141 14.3018C 49.4922 15.2334 48.8945 15.9453 48.1211 16.4375C 47.3477 16.9297 46.4453 17.1758 45.4141 17.1758C 44.4062 17.1758 43.5127 16.9297 42.7334 16.4375C 41.9541 15.9395 41.3477 15.2334 40.9141 14.3193C 40.4863 13.3994 40.2666 12.3359 40.2549 11.1289L 40.2549 10.2061C 40.2549 8.97559 40.4687 7.88867 40.8965 6.94531C 41.3242 6.00195 41.9277 5.28125 42.707 4.7832C 43.4922 4.2793 44.3887 4.02734 45.3965 4.02734C 46.4219 4.02734 47.3242 4.27637 48.1035 4.77441C 48.8887 5.2666 49.4922 5.98437 49.9141 6.92773C 50.3359 7.86523 50.5469 8.95801 50.5469 10.2061L 50.5469 11.0146Z
  M 48.8682 10.1885C 48.8682 8.6709 48.5635 7.50781 47.9541 6.69922C 47.3447 5.88477 46.4922 5.47754 45.3965 5.47754C 44.3301 5.47754 43.4893 5.88477 42.874 6.69922C 42.2646 7.50781 41.9512 8.63281 41.9336 10.0742L 41.9336 11.0146C 41.9336 12.4854 42.2412 13.6426 42.8564 14.4863C 43.4775 15.3242 44.3301 15.7432 45.4141 15.7432C 46.5039 15.7432 47.3477 15.3477 47.9453 14.5566C 48.543 13.7598 48.8506 12.6201 48.8682 11.1377L 48.8682 10.1885Z
  M 66.0332 5.5918L 61.9199 5.5918L 61.9199 17L 60.2412 17L 60.2412 5.5918L 56.1367 5.5918L 56.1367 4.20312L 66.0332 4.20312L 66.0332 5.5918Z
  M 73.8555 17L 72.168 17L 72.168 4.20312L 73.8555 4.20312L 73.8555 17Z
  M 85.6504 14.7588L 89.3066 4.20312L 91.1523 4.20312L 86.4062 17L 84.9121 17L 80.1748 4.20312L 82.0117 4.20312L 85.6504 14.7588Z
  M 104.406 13.6602L 99.0449 13.6602L 97.8408 17L 96.1006 17L 100.987 4.20312L 102.464 4.20312L 107.359 17L 105.628 17L 104.406 13.6602Z
  M 99.5547 12.2715L 103.905 12.2715L 101.726 6.28613L 99.5547 12.2715Z
  M 122.037 5.5918L 117.924 5.5918L 117.924 17L 116.245 17L 116.245 5.5918L 112.141 5.5918L 112.141 4.20312L 122.037 4.20312L 122.037 5.5918Z
  M 129.859 17L 128.172 17L 128.172 4.20312L 129.859 4.20312L 129.859 17Z
  M 147.262 11.0146C 147.262 12.2686 147.051 13.3643 146.629 14.3018C 146.207 15.2334 145.609 15.9453 144.836 16.4375C 144.062 16.9297 143.16 17.1758 142.129 17.1758C 141.121 17.1758 140.228 16.9297 139.448 16.4375C 138.669 15.9395 138.062 15.2334 137.629 14.3193C 137.201 13.3994 136.981 12.3359 136.97 11.1289L 136.97 10.2061C 136.97 8.97559 137.184 7.88867 137.611 6.94531C 138.039 6.00195 138.643 5.28125 139.422 4.7832C 140.207 4.2793 141.104 4.02734 142.111 4.02734C 143.137 4.02734 144.039 4.27637 144.818 4.77441C 145.604 5.2666 146.207 5.98437 146.629 6.92773C 147.051 7.86523 147.262 8.95801 147.262 10.2061L 147.262 11.0146Z
  M 145.583 10.1885C 145.583 8.6709 145.278 7.50781 144.669 6.69922C 144.06 5.88477 143.207 5.47754 142.111 5.47754C 141.045 5.47754 140.204 5.88477 139.589 6.69922C 138.979 7.50781 138.666 8.63281 138.648 10.0742L 138.648 11.0146C 138.648 12.4854 138.956 13.6426 139.571 14.4863C 140.192 15.3242 141.045 15.7432 142.129 15.7432C 143.219 15.7432 144.062 15.3477 144.66 14.5566C 145.258 13.7598 145.565 12.6201 145.583 11.1377L 145.583 10.1885Z
  M 164.093 17L 162.396 17L 155.954 7.13867L 155.954 17L 154.258 17L 154.258 4.20312L 155.954 4.20312L 162.414 14.1084L 162.414 4.20312L 164.093 4.20312L 164.093 17Z
  M 178.621 13.6602L 173.26 13.6602L 172.056 17L 170.315 17L 175.202 4.20312L 176.679 4.20312L 181.574 17L 179.843 17L 178.621 13.6602Z
  M 173.77 12.2715L 178.12 12.2715L 175.94 6.28613L 173.77 12.2715Z
  M 189.458 15.6201L 195.522 15.6201L 195.522 17L 187.762 17L 187.762 4.20312L 189.458 4.20312L 189.458 15.6201Z"/>
  <defs><style type="text/css"><![CDATA[
    .path {
      stroke-dasharray: 100%;
      stroke-dashoffset: 100%;
      animation: dash 0.5s ease-in-out forwards;
    }
    .path2 {
      animation-delay: 0.3s;
    }
    .path3 {
      animation-delay: 0.6s;
    }
    .path4 {
      animation-delay: 1s;
    }
    .path5 {
      animation-delay: 1.35s;
    }
    .path6 {
      animation-delay: 1.7s;
    }
    .path7 {
      animation-delay: 1.9s;
    }
    @keyframes dash {to {stroke-dashoffset: 0;}}
  ]]></style></defs>
  <g transform="translate(42 20)" >
  <line class='path path2' x1="0" y1="84" x2="0" y2="0" stroke="white"/>
  <line class='path path2' x1="16" y1="84" x2="16" y2="0" stroke="white"/>
  <line class='path path1' x1="0" y1="84" x2="16" y2="84" stroke="white"/>
  <line class='path path3' x1="0" y1="0" x2="46" y2="63" stroke="white"/>
  <line class='path path3' x1="16" y1="0" x2="62" y2="63" stroke="white"/>
  <line class='path path4' x1="46" y1="63" x2="90" y2="0" stroke="white"/>
  <line class='path path4' x1="62" y1="63" x2="106" y2="0" stroke="white"/>
  <line class='path path5' x1="90" y1="0" x2="90" y2="84" stroke="white"/>
  <line class='path path5' x1="106" y1="0" x2="106" y2="84" stroke="white"/>
  <line class='path path6' x1="90" y1="84" x2="106" y2="84" stroke="white"/>
</g>
</svg>
