<svg width="171" height="169" viewBox="0 0 171 169" version="1.1" xmlns="http://www.w3.org/2000/svg" xmlns:xlink="http://www.w3.org/1999/xlink">
<title>Group 2</title>
<desc>Created using Figma</desc>
<g id="Canvas" transform="translate(1743 -1306)">
<g id="Group 2">
<g id="logo">
<g id="Vector">
<use xlink:href="#path0_stroke" transform="translate(-1742 1307)"/>
</g>
</g>
<g id="S I G N U P">
<use xlink:href="#path1_fill" transform="translate(-1717 1457)"/>
</g>
</g>
</g>
<defs>
<path id="path0_stroke" d="M 0 22.5L -0.797867 21.8972L -1 22.1647L -1 22.5L 0 22.5ZM 0 128L -1 128L -1 130.414L 0.707107 128.707L 0 128ZM 85 124.5L 84.3429 125.254L 85.0555 125.875L 85.7158 125.198L 85 124.5ZM 169 122L 168.312 122.726L 170 124.325L 170 122L 169 122ZM 169 17L 170 17L 170 16.6512L 169.783 16.3781L 169 17ZM 85 19L 84.2351 19.6441L 85.0384 20.598L 85.795 19.6067L 85 19ZM 5.5 134L 4.5 134L 4.5 136.296L 6.1811 134.732L 5.5 134ZM 85 130.5L 84.4642 131.344L 85.1499 131.779L 85.7165 131.198L 85 130.5ZM 163.5 128L 162.691 128.588L 164.5 131.075L 164.5 128L 163.5 128ZM 163.5 117.468L 164.093 116.662L 163.5 117.468ZM 36.5 19L 37.3255 18.4356L 35.5 15.7658L 35.5 19L 36.5 19ZM 36.5 95L 35.5 95L 35.5 96L 36.5 96L 36.5 95ZM 52 95L 52 96L 53 96L 53 95L 52 95ZM 52 22.5L 52.8227 21.9316L 51 19.2934L 51 22.5L 52 22.5ZM 90 77.5L 89.1773 78.0684L 90.0337 79.308L 90.8434 78.0374L 90 77.5ZM 126 21L 127 21L 127 17.5696L 125.157 20.4626L 126 21ZM 126 95L 126 96L 127 96L 127 95L 126 95ZM 114.5 95L 113.5 95L 113.5 96L 114.5 96L 114.5 95ZM 114.5 21L 115.5 21L 115.5 17.7213L 113.67 20.4419L 114.5 21ZM 76.5 77.5L 75.6745 78.0644L 76.5068 79.2817L 77.3298 78.0581L 76.5 77.5ZM -1 22.5L -1 128L 1 128L 1 22.5L -1 22.5ZM 43 108.5C 60.6502 108.5 77.9223 119.656 84.3429 125.254L 85.6571 123.746C 79.0777 118.01 61.3498 106.5 43 106.5L 43 108.5ZM 85.7158 125.198C 89.013 121.817 95.0279 116.78 102.493 112.558C 109.967 108.321 118.681 104.983 127.5 105L 127.5 103C 118.319 103.017 109.116 106.512 101.507 110.817C 93.8887 115.136 87.6537 120.35 84.2842 123.802L 85.7158 125.198ZM 170 122L 170 17L 168 17L 168 122L 170 122ZM 169.783 16.3781C 165.11 10.4936 150.231 -1 127.5 -1L 127.5 1C 149.569 1 163.89 12.173 168.217 17.6219L 169.783 16.3781ZM 127.5 -1C 104.728 -1 89.1881 11.8639 84.205 18.3933L 85.795 19.6067C 90.4786 13.4695 105.472 1 127.5 1L 127.5 -1ZM 85.7649 18.3559C 80.3077 11.8754 64.1842 -1 43 -1L 43 1C 63.4158 1 79.0257 13.4579 84.2351 19.6441L 85.7649 18.3559ZM 43 -1C 21.7525 -1 4.95889 14.2779 -0.797867 21.8972L 0.797867 23.1028C 6.37444 15.7221 22.6475 1 43 1L 43 -1ZM 0.707107 128.707C 2.08234 127.331 3.90673 125.69 6.12404 123.92L 4.87596 122.357C 2.61333 124.165 0.705946 125.88 -0.707107 127.293L 0.707107 128.707ZM 6.12404 123.92C 14.8129 116.981 29.0207 108.5 43 108.5L 43 106.5C 28.324 106.5 13.6654 115.337 4.87596 122.357L 6.12404 123.92ZM 4.5 123.138L 4.5 134L 6.5 134L 6.5 123.138L 4.5 123.138ZM 6.1811 134.732C 13.3692 128.046 27.9374 115 46.5 115L 46.5 113C 27.0626 113 11.9641 126.621 4.8189 133.268L 6.1811 134.732ZM 46.5 115C 65.1207 115 75.5928 125.714 84.4642 131.344L 85.5358 129.656C 77.0738 124.286 65.8793 113 46.5 113L 46.5 115ZM 85.7165 131.198C 91.7938 124.956 108.685 112.5 127.5 112.5L 127.5 110.5C 107.915 110.5 90.5395 123.377 84.2835 129.802L 85.7165 131.198ZM 127.5 112.5C 146.32 112.5 158.841 123.294 162.691 128.588L 164.309 127.412C 160.159 121.706 147.08 110.5 127.5 110.5L 127.5 112.5ZM 127.5 105C 141.311 105 154.71 112.244 162.907 118.274L 164.093 116.662C 155.757 110.531 141.936 103 127.5 103L 127.5 105ZM 162.907 118.274C 165.151 119.923 166.97 121.454 168.312 122.726L 169.688 121.274C 168.302 119.962 166.388 118.351 164.093 116.662L 162.907 118.274ZM 164.5 128L 164.5 117.468L 162.5 117.468L 162.5 128L 164.5 128ZM 35.5 19L 35.5 95L 37.5 95L 37.5 19L 35.5 19ZM 36.5 96L 52 96L 52 94L 36.5 94L 36.5 96ZM 53 95L 53 22.5L 51 22.5L 51 95L 53 95ZM 51.1773 23.0684L 89.1773 78.0684L 90.8227 76.9316L 52.8227 21.9316L 51.1773 23.0684ZM 90.8434 78.0374L 126.843 21.5374L 125.157 20.4626L 89.1566 76.9626L 90.8434 78.0374ZM 125 21L 125 95L 127 95L 127 21L 125 21ZM 126 94L 114.5 94L 114.5 96L 126 96L 126 94ZM 115.5 95L 115.5 21L 113.5 21L 113.5 95L 115.5 95ZM 113.67 20.4419L 75.6702 76.9419L 77.3298 78.0581L 115.33 21.5581L 113.67 20.4419ZM 77.3255 76.9356L 37.3255 18.4356L 35.6745 19.5644L 75.6745 78.0644L 77.3255 76.9356Z"/>
<path id="path1_fill" d="M 21.2334 11.2959C 19.7861 10.8799 18.7314 10.3701 18.0693 9.7666C 17.4131 9.15723 17.085 8.40723 17.085 7.5166C 17.085 6.50879 17.4863 5.67676 18.2891 5.02051C 19.0977 4.3584 20.1465 4.02734 21.4355 4.02734C 22.3145 4.02734 23.0967 4.19727 23.7822 4.53711C 24.4736 4.87695 25.0068 5.3457 25.3818 5.94336C 25.7627 6.54102 25.9531 7.19434 25.9531 7.90332L 24.2568 7.90332C 24.2568 7.12988 24.0107 6.52344 23.5186 6.08398C 23.0264 5.63867 22.332 5.41602 21.4355 5.41602C 20.6035 5.41602 19.9531 5.60059 19.4844 5.96973C 19.0215 6.33301 18.79 6.83984 18.79 7.49023C 18.79 8.01172 19.0098 8.4541 19.4492 8.81738C 19.8945 9.1748 20.6475 9.50293 21.708 9.80176C 22.7744 10.1006 23.6064 10.4316 24.2041 10.7949C 24.8076 11.1523 25.2529 11.5713 25.54 12.0518C 25.833 12.5322 25.9795 13.0977 25.9795 13.748C 25.9795 14.7852 25.5752 15.6172 24.7666 16.2441C 23.958 16.8652 22.877 17.1758 21.5234 17.1758C 20.6445 17.1758 19.8242 17.0088 19.0625 16.6748C 18.3008 16.335 17.7119 15.8721 17.2959 15.2861C 16.8857 14.7002 16.6807 14.0352 16.6807 13.291L 18.377 13.291C 18.377 14.0645 18.6611 14.6768 19.2295 15.1279C 19.8037 15.5732 20.5684 15.7959 21.5234 15.7959C 22.4141 15.7959 23.0967 15.6143 23.5713 15.251C 24.0459 14.8877 24.2832 14.3926 24.2832 13.7656C 24.2832 13.1387 24.0635 12.6553 23.624 12.3154C 23.1846 11.9697 22.3877 11.6299 21.2334 11.2959ZM 34.4258 17L 32.7383 17L 32.7383 4.20312L 34.4258 4.20312L 34.4258 17ZM 51.4326 15.3213C 50.999 15.9424 50.3926 16.4082 49.6133 16.7188C 48.8398 17.0234 47.9375 17.1758 46.9062 17.1758C 45.8633 17.1758 44.9375 16.9326 44.1289 16.4463C 43.3203 15.9541 42.6934 15.2568 42.248 14.3545C 41.8086 13.4521 41.583 12.4062 41.5713 11.2168L 41.5713 10.1006C 41.5713 8.17285 42.0195 6.67871 42.916 5.61816C 43.8184 4.55762 45.084 4.02734 46.7129 4.02734C 48.0488 4.02734 49.124 4.37012 49.9385 5.05566C 50.7529 5.73535 51.251 6.70215 51.4326 7.95605L 49.7451 7.95605C 49.4287 6.2627 48.4209 5.41602 46.7217 5.41602C 45.5908 5.41602 44.7324 5.81445 44.1465 6.61133C 43.5664 7.40234 43.2734 8.55078 43.2676 10.0566L 43.2676 11.1025C 43.2676 12.5381 43.5957 13.6807 44.252 14.5303C 44.9082 15.374 45.7959 15.7959 46.915 15.7959C 47.5479 15.7959 48.1016 15.7256 48.5762 15.585C 49.0508 15.4443 49.4434 15.207 49.7539 14.873L 49.7539 11.999L 46.792 11.999L 46.792 10.6279L 51.4326 10.6279L 51.4326 15.3213ZM 68.5537 17L 66.8574 17L 60.415 7.13867L 60.415 17L 58.7188 17L 58.7188 4.20312L 60.415 4.20312L 66.875 14.1084L 66.875 4.20312L 68.5537 4.20312L 68.5537 17ZM 85.0244 4.20312L 85.0244 12.9043C 85.0186 14.1113 84.6377 15.0986 83.8818 15.8662C 83.1318 16.6338 82.1123 17.0645 80.8232 17.1582L 80.375 17.1758C 78.9746 17.1758 77.8584 16.7979 77.0264 16.042C 76.1943 15.2861 75.7725 14.2461 75.7607 12.9219L 75.7607 4.20312L 77.4307 4.20312L 77.4307 12.8691C 77.4307 13.7949 77.6855 14.5156 78.1953 15.0312C 78.7051 15.541 79.4316 15.7959 80.375 15.7959C 81.3301 15.7959 82.0596 15.541 82.5635 15.0312C 83.0732 14.5215 83.3281 13.8037 83.3281 12.8779L 83.3281 4.20312L 85.0244 4.20312ZM 93.8398 11.9902L 93.8398 17L 92.1523 17L 92.1523 4.20312L 96.8721 4.20312C 98.2725 4.20312 99.3682 4.56055 100.159 5.27539C 100.956 5.99023 101.354 6.93652 101.354 8.11426C 101.354 9.35645 100.965 10.3145 100.186 10.9883C 99.4121 11.6562 98.3018 11.9902 96.8545 11.9902L 93.8398 11.9902ZM 93.8398 10.6104L 96.8721 10.6104C 97.7744 10.6104 98.4658 10.3994 98.9463 9.97754C 99.4268 9.5498 99.667 8.93457 99.667 8.13184C 99.667 7.37012 99.4268 6.76074 98.9463 6.30371C 98.4658 5.84668 97.8066 5.60938 96.9688 5.5918L 93.8398 5.5918L 93.8398 10.6104Z"/>
</defs>
</svg>
