<svg width="171" height="170" viewBox="0 0 171 170" version="1.1" xmlns="http://www.w3.org/2000/svg" xmlns:xlink="http://www.w3.org/1999/xlink">
<title>Group 2</title>
<desc>Created using Figma</desc>
<g id="Canvas" transform="translate(2254 -493)">
<g id="Group 2">
<g id="Vector">
<use xlink:href="#path0_stroke" transform="translate(-2253 494)"/>
</g>
<g id="L O G I N">
<use xlink:href="#path1_fill" transform="translate(-2245 645)"/>
</g>
</g>
</g>
<defs>
<path id="path0_stroke" d="M 0 22.5L -0.797867 21.8972L -1 22.1647L -1 22.5L 0 22.5ZM 0 128L -1 128L -1 130.414L 0.707107 128.707L 0 128ZM 85 124.5L 84.3429 125.254L 85.0555 125.875L 85.7158 125.198L 85 124.5ZM 169 122L 168.312 122.726L 170 124.325L 170 122L 169 122ZM 169 17L 170 17L 170 16.6512L 169.783 16.3781L 169 17ZM 85 19L 84.2351 19.6441L 85.0384 20.598L 85.795 19.6067L 85 19ZM 5.5 134L 4.5 134L 4.5 136.296L 6.1811 134.732L 5.5 134ZM 85 130.5L 84.4642 131.344L 85.1499 131.779L 85.7165 131.198L 85 130.5ZM 163.5 128L 162.691 128.588L 164.5 131.075L 164.5 128L 163.5 128ZM 163.5 117.468L 164.093 116.662L 163.5 117.468ZM 36.5 19L 37.3255 18.4356L 35.5 15.7658L 35.5 19L 36.5 19ZM 36.5 95L 35.5 95L 35.5 96L 36.5 96L 36.5 95ZM 52 95L 52 96L 53 96L 53 95L 52 95ZM 52 22.5L 52.8227 21.9316L 51 19.2934L 51 22.5L 52 22.5ZM 90 77.5L 89.1773 78.0684L 90.0337 79.308L 90.8434 78.0374L 90 77.5ZM 126 21L 127 21L 127 17.5696L 125.157 20.4626L 126 21ZM 126 95L 126 96L 127 96L 127 95L 126 95ZM 114.5 95L 113.5 95L 113.5 96L 114.5 96L 114.5 95ZM 114.5 21L 115.5 21L 115.5 17.7213L 113.67 20.4419L 114.5 21ZM 76.5 77.5L 75.6745 78.0644L 76.5068 79.2817L 77.3298 78.0581L 76.5 77.5ZM -1 22.5L -1 128L 1 128L 1 22.5L -1 22.5ZM 43 108.5C 60.6502 108.5 77.9223 119.656 84.3429 125.254L 85.6571 123.746C 79.0777 118.01 61.3498 106.5 43 106.5L 43 108.5ZM 85.7158 125.198C 89.013 121.817 95.0279 116.78 102.493 112.558C 109.967 108.321 118.681 104.983 127.5 105L 127.5 103C 118.319 103.017 109.116 106.512 101.507 110.817C 93.8887 115.136 87.6537 120.35 84.2842 123.802L 85.7158 125.198ZM 170 122L 170 17L 168 17L 168 122L 170 122ZM 169.783 16.3781C 165.11 10.4936 150.231 -1 127.5 -1L 127.5 1C 149.569 1 163.89 12.173 168.217 17.6219L 169.783 16.3781ZM 127.5 -1C 104.728 -1 89.1881 11.8639 84.205 18.3933L 85.795 19.6067C 90.4786 13.4695 105.472 1 127.5 1L 127.5 -1ZM 85.7649 18.3559C 80.3077 11.8754 64.1842 -1 43 -1L 43 1C 63.4158 1 79.0257 13.4579 84.2351 19.6441L 85.7649 18.3559ZM 43 -1C 21.7525 -1 4.95889 14.2779 -0.797867 21.8972L 0.797867 23.1028C 6.37444 15.7221 22.6475 1 43 1L 43 -1ZM 0.707107 128.707C 2.08234 127.331 3.90673 125.69 6.12404 123.92L 4.87596 122.357C 2.61333 124.165 0.705946 125.88 -0.707107 127.293L 0.707107 128.707ZM 6.12404 123.92C 14.8129 116.981 29.0207 108.5 43 108.5L 43 106.5C 28.324 106.5 13.6654 115.337 4.87596 122.357L 6.12404 123.92ZM 4.5 123.138L 4.5 134L 6.5 134L 6.5 123.138L 4.5 123.138ZM 6.1811 134.732C 13.3692 128.046 27.9374 115 46.5 115L 46.5 113C 27.0626 113 11.9641 126.621 4.8189 133.268L 6.1811 134.732ZM 46.5 115C 65.1207 115 75.5928 125.714 84.4642 131.344L 85.5358 129.656C 77.0738 124.286 65.8793 113 46.5 113L 46.5 115ZM 85.7165 131.198C 91.7938 124.956 108.685 112.5 127.5 112.5L 127.5 110.5C 107.915 110.5 90.5395 123.377 84.2835 129.802L 85.7165 131.198ZM 127.5 112.5C 146.32 112.5 158.841 123.294 162.691 128.588L 164.309 127.412C 160.159 121.706 147.08 110.5 127.5 110.5L 127.5 112.5ZM 127.5 105C 141.311 105 154.71 112.244 162.907 118.274L 164.093 116.662C 155.757 110.531 141.936 103 127.5 103L 127.5 105ZM 162.907 118.274C 165.151 119.923 166.97 121.454 168.312 122.726L 169.688 121.274C 168.302 119.962 166.388 118.351 164.093 116.662L 162.907 118.274ZM 164.5 128L 164.5 117.468L 162.5 117.468L 162.5 128L 164.5 128ZM 35.5 19L 35.5 95L 37.5 95L 37.5 19L 35.5 19ZM 36.5 96L 52 96L 52 94L 36.5 94L 36.5 96ZM 53 95L 53 22.5L 51 22.5L 51 95L 53 95ZM 51.1773 23.0684L 89.1773 78.0684L 90.8227 76.9316L 52.8227 21.9316L 51.1773 23.0684ZM 90.8434 78.0374L 126.843 21.5374L 125.157 20.4626L 89.1566 76.9626L 90.8434 78.0374ZM 125 21L 125 95L 127 95L 127 21L 125 21ZM 126 94L 114.5 94L 114.5 96L 126 96L 126 94ZM 115.5 95L 115.5 21L 113.5 21L 113.5 95L 115.5 95ZM 113.67 20.4419L 75.6702 76.9419L 77.3298 78.0581L 115.33 21.5581L 113.67 20.4419ZM 77.3255 76.9356L 37.3255 18.4356L 35.6745 19.5644L 75.6745 78.0644L 77.3255 76.9356Z"/>
<path id="path1_fill" d="M 44.2188 15.6201L 50.2832 15.6201L 50.2832 17L 42.5225 17L 42.5225 4.20312L 44.2188 4.20312L 44.2188 15.6201ZM 66.5166 11.0146C 66.5166 12.2686 66.3057 13.3643 65.8838 14.3018C 65.4619 15.2334 64.8643 15.9453 64.0908 16.4375C 63.3174 16.9297 62.415 17.1758 61.3838 17.1758C 60.376 17.1758 59.4824 16.9297 58.7031 16.4375C 57.9238 15.9395 57.3174 15.2334 56.8838 14.3193C 56.4561 13.3994 56.2363 12.3359 56.2246 11.1289L 56.2246 10.2061C 56.2246 8.97559 56.4385 7.88867 56.8662 6.94531C 57.2939 6.00195 57.8975 5.28125 58.6768 4.7832C 59.4619 4.2793 60.3584 4.02734 61.3662 4.02734C 62.3916 4.02734 63.2939 4.27637 64.0732 4.77441C 64.8584 5.2666 65.4619 5.98437 65.8838 6.92773C 66.3057 7.86523 66.5166 8.95801 66.5166 10.2061L 66.5166 11.0146ZM 64.8379 10.1885C 64.8379 8.6709 64.5332 7.50781 63.9238 6.69922C 63.3145 5.88477 62.4619 5.47754 61.3662 5.47754C 60.2998 5.47754 59.459 5.88477 58.8438 6.69922C 58.2344 7.50781 57.9209 8.63281 57.9033 10.0742L 57.9033 11.0146C 57.9033 12.4854 58.2109 13.6426 58.8262 14.4863C 59.4473 15.3242 60.2998 15.7432 61.3838 15.7432C 62.4736 15.7432 63.3174 15.3477 63.915 14.5566C 64.5127 13.7598 64.8203 12.6201 64.8379 11.1377L 64.8379 10.1885ZM 82.9609 15.3213C 82.5273 15.9424 81.9209 16.4082 81.1416 16.7188C 80.3682 17.0234 79.4658 17.1758 78.4346 17.1758C 77.3916 17.1758 76.4658 16.9326 75.6572 16.4463C 74.8486 15.9541 74.2217 15.2568 73.7764 14.3545C 73.3369 13.4521 73.1113 12.4062 73.0996 11.2168L 73.0996 10.1006C 73.0996 8.17285 73.5479 6.67871 74.4443 5.61816C 75.3467 4.55762 76.6123 4.02734 78.2412 4.02734C 79.5771 4.02734 80.6523 4.37012 81.4668 5.05566C 82.2812 5.73535 82.7793 6.70215 82.9609 7.95605L 81.2734 7.95605C 80.957 6.2627 79.9492 5.41602 78.25 5.41602C 77.1191 5.41602 76.2607 5.81445 75.6748 6.61133C 75.0947 7.40234 74.8018 8.55078 74.7959 10.0566L 74.7959 11.1025C 74.7959 12.5381 75.124 13.6807 75.7803 14.5303C 76.4365 15.374 77.3242 15.7959 78.4434 15.7959C 79.0762 15.7959 79.6299 15.7256 80.1045 15.585C 80.5791 15.4443 80.9717 15.207 81.2822 14.873L 81.2822 11.999L 78.3203 11.999L 78.3203 10.6279L 82.9609 10.6279L 82.9609 15.3213ZM 92.0576 17L 90.3701 17L 90.3701 4.20312L 92.0576 4.20312L 92.0576 17ZM 109.451 17L 107.755 17L 101.312 7.13867L 101.312 17L 99.6162 17L 99.6162 4.20312L 101.312 4.20312L 107.772 14.1084L 107.772 4.20312L 109.451 4.20312L 109.451 17Z"/>
</defs>
</svg>
