<svg width="162" height="124" viewBox="0 0 81 62" version="1.1" xmlns="http://www.w3.org/2000/svg" xmlns:xlink="http://www.w3.org/1999/xlink">
<title>Vector</title>
<desc>Created using Figma</desc>
<g id="Canvas" transform="translate(1160 -4292)">
<g id="Vector">
<use xlink:href="#path0_stroke" transform="translate(-1159 4293.98)" fill="#FFFBFB"/>
</g>
</g>
<defs>
<path id="path0_stroke" d="M 0 9.58173L -0.769722 8.94335L -1 9.22101L -1 9.58173L 0 9.58173ZM 0 54.5094L -1 54.5094L -1 56.7731L 0.673447 55.2486L 0 54.5094ZM 39.7337 53.0189L 39.1118 53.802L 39.7865 54.3378L 40.4162 53.7498L 39.7337 53.0189ZM 79 51.9543L 78.3466 52.7113L 80 54.1383L 80 51.9543L 79 51.9543ZM 79 7.23953L 80 7.23953L 80 6.86486L 79.7538 6.58244L 79 7.23953ZM 39.7337 8.09124L 38.9994 8.77003L 39.7707 9.60439L 40.5003 8.7334L 39.7337 8.09124ZM 2.57101 57.0645L 1.57101 57.0645L 1.57101 59.2228L 3.21752 57.8274L 2.57101 57.0645ZM 39.7337 55.574L 39.2332 56.4398L 39.8753 56.811L 40.4169 56.3042L 39.7337 55.574ZM 76.429 54.5094L 75.6475 55.1333L 77.429 57.3649L 77.429 54.5094L 76.429 54.5094ZM 76.429 50.0243L 76.9857 49.1935L 76.429 50.0243ZM 17.0621 8.09124L 17.8619 7.49095L 16.0621 5.09302L 16.0621 8.09124L 17.0621 8.09124ZM 17.0621 40.4562L 16.0621 40.4562L 16.0621 41.4562L 17.0621 41.4562L 17.0621 40.4562ZM 24.3077 40.4562L 24.3077 41.4562L 25.3077 41.4562L 25.3077 40.4562L 24.3077 40.4562ZM 24.3077 9.58173L 25.1045 8.97745L 23.3077 6.6083L 23.3077 9.58173L 24.3077 9.58173ZM 42.071 33.0037L 41.2742 33.608L 42.1037 34.7017L 42.8905 33.5769L 42.071 33.0037ZM 58.8994 8.94295L 59.8994 8.94295L 59.8994 5.7684L 58.08 8.36981L 58.8994 8.94295ZM 58.8994 40.4562L 58.8994 41.4562L 59.8994 41.4562L 59.8994 40.4562L 58.8994 40.4562ZM 53.5237 40.4562L 52.5237 40.4562L 52.5237 41.4562L 53.5237 41.4562L 53.5237 40.4562ZM 53.5237 8.94295L 54.5237 8.94295L 54.5237 5.90476L 52.7192 8.349L 53.5237 8.94295ZM 35.7604 33.0037L 34.9606 33.604L 35.767 34.6784L 36.5649 33.5977L 35.7604 33.0037ZM -1 9.58173L -1 54.5094L 1 54.5094L 1 9.58173L -1 9.58173ZM 20.1006 46.7794C 28.1959 46.7794 36.1602 51.4578 39.1118 53.802L 40.3557 52.2358C 37.2304 49.7537 28.8337 44.7794 20.1006 44.7794L 20.1006 46.7794ZM 40.4162 53.7498C 43.4662 50.9018 51.5654 45.2889 59.6006 45.2889L 59.6006 43.2889C 50.8073 43.2889 42.234 49.316 39.0512 52.288L 40.4162 53.7498ZM 80 51.9543L 80 7.23953L 78 7.23953L 78 51.9543L 80 51.9543ZM 79.7538 6.58244C 77.4645 3.95617 70.3669 -1 59.6006 -1L 59.6006 1C 69.7763 1 76.3284 5.69653 78.2462 7.89662L 79.7538 6.58244ZM 59.6006 -1C 48.7959 -1 41.3909 4.55583 38.9672 7.44908L 40.5003 8.7334C 42.5953 6.23249 49.4632 1 59.6006 1L 59.6006 -1ZM 40.4681 7.41245C 37.838 4.56722 30.1713 -1 20.1006 -1L 20.1006 1C 29.4761 1 36.6432 6.2211 38.9994 8.77003L 40.4681 7.41245ZM 20.1006 -1C 9.97008 -1 1.98568 5.62104 -0.769722 8.94335L 0.769722 10.2201C 3.31215 7.1546 10.785 1 20.1006 1L 20.1006 -1ZM 0.673447 55.2486C 1.30558 54.6723 2.13527 53.9922 3.15933 53.2477L 1.98268 51.6304C 0.912567 52.4095 -0.00218409 53.1591 -0.673447 53.7702L 0.673447 55.2486ZM 3.15933 53.2477C 7.18727 50.3171 13.7214 46.7794 20.1006 46.7794L 20.1006 44.7794C 13.0847 44.7794 6.12508 48.6166 1.98268 51.6304L 3.15933 53.2477ZM 1.57101 52.439L 1.57101 57.0645L 3.57101 57.0645L 3.57101 52.439L 1.57101 52.439ZM 3.21752 57.8274C 6.57698 54.9805 13.2577 49.5474 21.7367 49.5474L 21.7367 47.5474C 12.4523 47.5474 5.26523 53.4705 1.92449 56.3016L 3.21752 57.8274ZM 21.7367 49.5474C 30.2685 49.5474 34.9917 53.9876 39.2332 56.4398L 40.2342 54.7083C 36.3732 52.4761 30.9682 47.5474 21.7367 47.5474L 21.7367 49.5474ZM 40.4169 56.3042C 43.1996 53.7007 50.9758 48.4828 59.6006 48.4828L 59.6006 46.4828C 50.2751 46.4828 42.0332 52.0532 39.0505 54.8438L 40.4169 56.3042ZM 59.6006 48.4828C 68.2345 48.4828 73.943 52.9982 75.6475 55.1333L 77.2105 53.8855C 75.1753 51.3362 68.917 46.4828 59.6006 46.4828L 59.6006 48.4828ZM 59.6006 45.2889C 65.9174 45.2889 72.0816 48.3149 75.8723 50.855L 76.9857 49.1935C 73.0477 46.5548 66.4876 43.2889 59.6006 43.2889L 59.6006 45.2889ZM 75.8723 50.855C 76.907 51.5477 77.7312 52.1796 78.3466 52.7113L 79.6534 51.1972C 78.9935 50.6283 78.0726 49.9225 76.9857 49.1935L 75.8723 50.855ZM 77.429 54.5094L 77.429 50.0243L 75.429 50.0243L 75.429 54.5094L 77.429 54.5094ZM 16.0621 8.09124L 16.0621 40.4562L 18.0621 40.4562L 18.0621 8.09124L 16.0621 8.09124ZM 17.0621 41.4562L 24.3077 41.4562L 24.3077 39.4562L 17.0621 39.4562L 17.0621 41.4562ZM 25.3077 40.4562L 25.3077 9.58173L 23.3077 9.58173L 23.3077 40.4562L 25.3077 40.4562ZM 23.5109 10.186L 41.2742 33.608L 42.8678 32.3995L 25.1045 8.97745L 23.5109 10.186ZM 42.8905 33.5769L 59.7189 9.51609L 58.08 8.36981L 41.2515 32.4306L 42.8905 33.5769ZM 57.8994 8.94295L 57.8994 40.4562L 59.8994 40.4562L 59.8994 8.94295L 57.8994 8.94295ZM 58.8994 39.4562L 53.5237 39.4562L 53.5237 41.4562L 58.8994 41.4562L 58.8994 39.4562ZM 54.5237 40.4562L 54.5237 8.94295L 52.5237 8.94295L 52.5237 40.4562L 54.5237 40.4562ZM 52.7192 8.349L 34.9558 32.4098L 36.5649 33.5977L 54.3282 9.53689L 52.7192 8.349ZM 36.5601 32.4034L 17.8619 7.49095L 16.2623 8.69152L 34.9606 33.604L 36.5601 32.4034Z"/>
</defs>
</svg>
